<svg width="196" height="110" viewBox="0 0 196 110" fill="none" xmlns="http://www.w3.org/2000/svg">
<path d="M3.35624 61.2049C11.0511 59.0692 47.9126 48.4973 64.0856 50.6015C72.8173 51.6605 77.4667 54.1073 78.6999 55.1983C61.4041 60.8227 44.705 86.5577 44.7634 107.865C42.4725 110.062 40.1058 108.76 39.3095 107.985C23.4938 92.5958 7.50174 82.5183 0.284067 65.7387C-0.725705 63.7942 1.11137 61.8372 3.35624 61.2049Z" fill="#010101"/>
<path d="M191.922 66.1141C183.949 66.4902 145.677 68.6247 130.364 62.9845C122.079 60.0147 118.08 56.5967 117.117 55.259C135.22 53.6099 157.15 32.213 161.765 11.417C164.481 9.78255 166.504 11.5778 167.11 12.5102C179.163 31.0289 192.552 44.4059 195.913 62.3734C196.471 64.4941 194.251 65.9954 191.922 66.1141Z" fill="#010101"/>
<path d="M138.521 109.995C123.189 110.255 82.5391 99.9423 94.2716 62.1648C125.322 68.7342 140.53 74.2931 138.521 109.995Z" fill="#010101"/>
<path d="M103.672 40.7526C101.446 25.4913 84.7492 -13.1901 49.5871 4.5702C61.0575 34.329 68.9724 48.5251 103.672 40.7526Z" fill="#010101"/>
<path d="M90.0125 54.7613L105.128 58.8353C107.299 59.4206 109.098 57.0844 107.991 55.116L104.464 48.8432C102.74 45.7776 98.8718 44.6984 95.8245 46.4328L89.4201 50.0779C87.4447 51.2021 87.8202 54.1705 90.0125 54.7613Z" fill="#010101"/>
</svg>
