<svg width="224" height="122" viewBox="0 0 224 122" fill="none" xmlns="http://www.w3.org/2000/svg">
<path d="M90.7555 41.275C82.6038 25.1387 64.991 21.679 57.2036 21.9663C54.5474 21.2511 54.6789 19.2012 55.0767 18.2657C65.194 1.68418 84.1625 -0.71744 92.3821 0.154442C104.696 16.6961 98.993 34.8529 94.6021 41.8636C93.4041 43.6861 91.5385 42.2306 90.7555 41.275Z" fill="#010101"/>
<path d="M163.992 109.203C146.763 103.92 140.333 87.0899 139.271 79.335C138.112 76.8301 136.124 77.3139 135.276 77.8688C120.761 90.7397 121.678 109.923 123.951 117.905C142.295 127.236 159.116 118.461 165.233 112.907C166.813 111.408 165.064 109.813 163.992 109.203Z" fill="#010101"/>
<path d="M117.816 78.403C99.3221 82.3623 101.791 62.3221 105.337 51.807C106.891 48.6503 110.195 48.0501 111.652 48.1446C136.935 52.0898 134.015 65.4843 129.394 71.6883L117.816 78.403Z" fill="#010101"/>
<path d="M0.393951 83.7427C22.2012 40.9665 45.0882 32.7418 53.8058 33.9765C65.3463 47.0485 85.0923 53.7831 93.5228 55.5163C105.357 79.1263 89.491 99.3644 80.0788 106.532C56.0808 124.114 18.4243 104.168 2.59587 91.9975C-0.565317 89.815 -0.189237 85.5849 0.393951 83.7427Z" fill="#010101"/>
<path d="M222.615 44.3704C190.309 79.4058 165.916 81.3656 157.757 77.966C149.925 62.608 132.467 51.1696 124.718 47.3701C119.333 21.9334 140.014 6.77543 151.028 2.376C178.929 -8.1826 210.378 20.3736 222.615 35.9716C225.123 38.8512 223.66 42.7707 222.615 44.3704Z" fill="#010101"/>
</svg>
