<svg width="196" height="126" viewBox="0 0 196 126" fill="none" xmlns="http://www.w3.org/2000/svg">
<path d="M115.769 66.8718C124.318 67.9962 163.834 64.8356 180.762 59.9645C189.913 57.4193 194.856 52.7035 196 51.3109C177.728 45.817 155.573 28.8178 152.275 5.42753C149.484 3.38001 148.02 4.9608 147.441 6.0342C125.652 46.4093 122.766 44.132 112.074 63.3016C111.303 65.5953 113.274 66.5336 115.769 66.8718Z" fill="#010101"/>
<path d="M80.7408 72.0948C73.0577 68.1344 34.7797 57.7033 17.2191 56.5487C7.7548 55.8415 1.53835 58.6076 0 59.5315C15.3998 70.9084 30.6539 94.4435 26.0278 117.602C27.9809 120.478 29.8824 119.485 30.7832 118.671C64.6631 88.0216 66.6293 91.1466 83.0428 76.713C84.5276 74.8133 82.9803 73.2603 80.7408 72.0948Z" fill="#010101"/>
<path d="M114.676 82.7291C113.209 79.4313 115.757 79.2727 117.214 79.6056C141.967 87.0269 165.234 108.593 173.773 118.448C174.172 118.938 173.354 120.845 172.895 121.737C165.856 120.585 155.917 123.984 151.828 125.827C150.413 126.587 147.658 124.661 146.457 123.603L114.676 82.7291Z" fill="#010101"/>
<path d="M86.861 58.3012C90.1787 59.6385 90.2211 57.0528 89.8276 55.5928C81.4019 30.874 59.0941 8.29212 48.9934 0.0910076C48.4923 -0.291172 46.6486 0.622393 45.7893 1.12695C47.2403 8.19877 44.3336 18.4093 42.6989 22.6305C42.0133 24.096 44.0354 26.7981 45.1321 27.966L86.861 58.3012Z" fill="#010101"/>
<path d="M110.067 72.8629C111.385 76.1822 108.668 79.6576 105.177 79.1186L91.0372 76.9356C87.5459 76.3966 85.8986 72.2475 88.0721 69.4672L96.8748 58.207C99.0483 55.4267 103.412 56.1004 104.73 59.4197L110.067 72.8629Z" fill="#010101"/>
</svg>
