<svg width="133" height="116" viewBox="0 0 133 116" fill="none" xmlns="http://www.w3.org/2000/svg">
<path d="M131.995 12.2576C126.825 20.9537 102.357 62.922 85.7632 75.1932C76.8711 81.8886 70.5003 83.7384 68.4263 83.8263C79.3299 63.5295 72.2143 25.4355 53.6463 6.07577C53.8291 2.06485 57.1215 1.17504 58.5217 1.18233C86.3331 1.32699 109.69 -3.52189 130.86 5.43222C133.471 6.31786 133.495 9.71227 131.995 12.2576Z" fill="#010101"/>
<path d="M1.00549 103.742C6.17509 95.0463 30.6428 53.078 47.2369 40.8068C56.1289 34.1113 62.4998 32.2616 64.5737 32.1736C53.6701 52.4705 60.7857 90.5644 79.3537 109.924C79.1709 113.935 75.8785 114.825 74.4783 114.818C46.6669 114.673 23.3099 119.522 2.1402 110.568C-0.471376 109.682 -0.494639 106.288 1.00549 103.742Z" fill="#010101"/>
<path d="M116.617 75.3919C114.43 85.7418 101.303 111.493 77.9478 97.8001C87.1036 77.9293 93.1472 68.5567 116.617 75.3919Z" fill="#010101"/>
<path d="M53.1961 16.8792H33.4179C30.5764 16.8792 29.1404 20.3157 31.1318 22.3501L37.478 28.8334C40.5793 32.0019 45.6527 32.0465 48.809 28.9332L55.4425 22.39C57.4884 20.3719 56.0648 16.8792 53.1961 16.8792Z" fill="#010101"/>
</svg>
