<svg width="601" height="606" viewBox="0 0 601 606" fill="none" xmlns="http://www.w3.org/2000/svg">
<path d="M294.449 591.138C451.479 591.138 578.777 463.84 578.777 306.81C578.777 149.78 451.479 22.4823 294.449 22.4823C137.419 22.4823 10.1211 149.78 10.1211 306.81C10.1211 463.84 137.419 591.138 294.449 591.138Z" fill="#B3AD97"/>
<path d="M596.565 304.605C596.418 307.399 599.433 306.37 600.021 306.811C599.139 302.105 595.757 304.752 596.565 304.605Z" fill="#B3AD97"/>
<path d="M585.572 259.679L586.896 260.34L582.852 254.238L585.572 259.679Z" fill="#B3AD97"/>
<path d="M576.198 218.506C572.301 223.8 580.831 233.064 580.978 240.858L580.095 242.328L585.095 244.681C582.154 235.858 576.566 225.123 576.198 218.506Z" fill="#B3AD97"/>
<path d="M579.027 193.136C577.63 195.269 575.645 189.019 580.277 198.504C580.277 197.915 580.35 197.768 580.424 197.401C580.056 196.518 579.615 195.269 579.027 193.136Z" fill="#B3AD97"/>
<path d="M580.484 197.401C582.249 201.665 581.073 193.945 580.484 197.401Z" fill="#B3AD97"/>
<path d="M571.059 178.211L575.323 182.917C575.911 181.299 573.779 176.226 575.47 177.696C571.867 172.402 571.353 174.167 571.059 178.211Z" fill="#B3AD97"/>
<path d="M565.184 174.756L567.242 177.256C567.463 176.521 567.242 175.712 565.184 174.756Z" fill="#B3AD97"/>
<path d="M571.535 182.477L567.197 177.183C566.83 178.36 565.286 179.095 569.035 179.683C567.418 179.83 569.33 180.418 571.535 182.477Z" fill="#B3AD97"/>
<path d="M572.483 186.151C572.998 189.606 573.733 193.944 569.836 189.092C574.542 199.459 577.63 196.518 572.483 186.151Z" fill="#B3AD97"/>
<path d="M570.35 218.137C570.35 219.608 570.35 221.152 570.203 222.696L572.85 225.784C571.674 224.166 572.041 217.328 570.35 218.137Z" fill="#B3AD97"/>
<path d="M555.45 143.653C554.273 143.948 553.979 146.962 553.023 148.139L556.406 151.3C555.891 148.947 554.2 144.83 555.45 143.727V143.653Z" fill="#B3AD97"/>
<path d="M552.952 148.064L547.879 143.432C550.746 148.579 552.07 149.02 552.952 148.064Z" fill="#B3AD97"/>
<path d="M559.487 176.375L567.796 184.316L558.531 174.537L559.487 176.375Z" fill="#B3AD97"/>
<path d="M540.88 122.331L545.292 123.875L538.086 120.713L540.88 122.331Z" fill="#B3AD97"/>
<path d="M530.022 109.022C533.551 109.757 530.169 103.801 533.184 105.198C529.728 101.963 525.611 100.198 522.008 98.6544C525.243 100.86 527.816 104.022 530.022 109.095V109.022Z" fill="#B3AD97"/>
<path d="M516.297 95.8617C517.914 96.8911 519.9 97.6999 522.105 98.6557C520.414 97.4793 518.503 96.5234 516.297 95.8617Z" fill="#B3AD97"/>
<path d="M542.045 133.728C542.265 132.919 543.148 131.155 541.53 127.699L540.574 131.67C541.015 132.331 541.53 133.067 542.118 133.802L542.045 133.728Z" fill="#B3AD97"/>
<path d="M540.505 131.741V131.594C538.887 129.241 537.784 127.697 537.27 126.962C537.637 127.55 538.667 129.021 540.505 131.741Z" fill="#B3AD97"/>
<path d="M542.49 134.317C542.49 134.317 542.269 133.949 542.122 133.802C542.049 134.17 542.049 134.391 542.49 134.317Z" fill="#B3AD97"/>
<path d="M554.085 159.904C550.556 157.477 544.821 151.669 546.512 159.61C549.747 160.859 548.791 156.301 554.085 159.904Z" fill="#B3AD97"/>
<path d="M541.188 139.097C542.364 141.082 543.246 143.288 544.276 145.346C544.937 144.758 545.231 143.067 546.996 144.17C545.011 142.479 543.246 140.641 541.188 139.023V139.097Z" fill="#B3AD97"/>
<path d="M538.332 136.964L541.2 139.097L539.876 136.891L538.332 136.964Z" fill="#B3AD97"/>
<path d="M522.342 106.817C519.254 105.494 516.974 103.068 514.254 100.421C516.533 103.803 519.033 107.112 521.68 110.053C522.783 109.832 525.283 109.979 522.342 106.817Z" fill="#B3AD97"/>
<path d="M531.287 118.866C531.287 118.866 530.926 118.577 530.781 118.432C530.781 118.938 530.926 119.227 531.287 118.866Z" fill="#B3AD97"/>
<path d="M487.484 74.9811L487.558 75.7899L488.073 75.4958L487.484 74.9811Z" fill="#B3AD97"/>
<path d="M521.664 110.935C523.208 113.582 525.046 114.39 526.884 115.052C525.119 113.582 523.355 111.964 521.664 110.052C521.149 110.126 520.928 110.346 521.664 110.935Z" fill="#B3AD97"/>
<path d="M507.969 89.3152C508.778 90.8592 509.586 92.5503 510.469 94.2415C510.175 92.3298 508.998 89.0946 507.969 89.3152Z" fill="#B3AD97"/>
<path d="M530.781 117.037L531.149 117.332C531.149 116.082 530.928 116.449 530.781 117.037Z" fill="#B3AD97"/>
<path d="M530.803 117.036C529.48 116.081 528.156 115.566 526.906 115.051C528.23 116.375 529.48 117.478 530.73 118.434C530.73 117.992 530.73 117.478 530.73 117.036H530.803Z" fill="#B3AD97"/>
<path d="M466.293 84.0962C468.352 82.1845 476.44 84.1697 479.087 91.1547C485.19 93.8017 488.572 83.8756 487.616 75.7876C486.587 76.67 485.999 77.3317 479.455 74.6112C480.631 77.0376 488.572 87.2578 482.616 85.4196C475.117 80.6404 477.617 80.1257 475.19 76.1553C475.852 81.1551 462.911 73.5818 461.367 79.0963L468.573 82.1109C468.205 82.8462 465.191 82.258 466.367 84.0962H466.293Z" fill="#B3AD97"/>
<path d="M497.172 84.9045L499.525 86.5221C497.466 83.9487 496.51 81.5223 494.819 76.8901C490.334 74.7578 488.937 74.9049 488.055 75.4196L498.201 85.1986L497.172 84.831V84.9045Z" fill="#B3AD97"/>
<path d="M508.853 95.3476C505.176 95.7888 499.074 92.4066 499.809 97.5534C505.838 103.068 505.618 99.8328 510.029 102.406C500.471 93.0683 513.926 104.024 508.632 95.6417C510.838 97.2593 512.529 98.8769 514.147 100.495C512.75 98.4358 511.573 96.377 510.47 94.3183C510.47 94.4653 510.47 94.5388 510.47 94.6859C510.617 95.4212 510.47 95.7153 510.25 95.0535C510.25 95.0535 510.103 94.9065 510.029 94.9065C509.662 95.1271 509.22 95.2006 508.779 95.2741C506.573 91.8919 508.926 94.2447 510.029 94.9065C510.176 94.8329 510.323 94.8329 510.47 94.6859C507.088 91.5978 503.044 89.2449 499.441 86.5244C501.206 88.8037 504.074 91.0096 508.779 95.2741L508.853 95.3476Z" fill="#B3AD97"/>
<path d="M537.116 157.109C537.116 156.594 537.337 156.52 537.557 156.373C536.822 155.859 536.381 155.712 537.116 157.109Z" fill="#B3AD97"/>
<path d="M535.965 151.594C536.847 152.182 538.318 152.182 539.641 154.976C540.229 157.77 538.318 155.785 537.509 156.447C539.2 157.55 542.803 160.785 541.112 155.05L540.303 154.461C538.538 149.462 538.244 141.447 539.126 141.962C537.582 144.903 536.627 147.182 536.038 151.667L535.965 151.594Z" fill="#B3AD97"/>
<path d="M523.215 123.287C520.715 120.566 517.774 118.287 514.906 115.934L516.524 121.816L517.627 120.566C521.082 125.713 521.671 123.507 523.215 123.287Z" fill="#B3AD97"/>
<path d="M487.555 72.9199L490.79 71.3759C488.217 71.0082 485.349 71.0817 482.629 70.9347L487.482 72.9199H487.555Z" fill="#B3AD97"/>
<path d="M475.513 64.3179L477.718 62.3327L473.527 61.3768L475.513 64.3179Z" fill="#B3AD97"/>
<path d="M65.0859 442.615L67.2917 444.673C66.3359 443.644 65.6742 442.982 65.0859 442.615Z" fill="#B3AD97"/>
<path d="M55.1651 423.864L53.6211 424.011C54.724 424.526 55.4593 424.673 55.1651 423.864Z" fill="#B3AD97"/>
<path d="M135.384 49.7607C129.796 49.9813 122.737 49.3196 125.09 51.746L128.105 53.6577C130.678 51.3783 133.105 50.349 135.384 49.7607Z" fill="#B3AD97"/>
<path d="M16.4122 251.075L17.5886 249.972C16.7798 248.649 16.0446 247.472 15.3828 246.37C15.7504 247.84 15.8975 249.384 16.4857 251.075H16.4122Z" fill="#B3AD97"/>
<path d="M28.9027 256.666L26.0352 261.96C26.9175 260.783 27.8733 259.092 28.9027 256.666Z" fill="#B3AD97"/>
<path d="M145.52 524.082C147.064 523.862 148.534 523.641 150.078 523.273C145.74 520.406 146.769 522.906 145.52 524.082Z" fill="#B3AD97"/>
<path d="M337.347 8.4394C333.376 6.60123 330.141 5.57186 327.273 4.98364C332.126 7.55708 335.655 10.8658 337.347 8.4394Z" fill="#B3AD97"/>
<path d="M31.0938 451.803C32.6378 453.274 33.6672 453.641 34.2554 453.274C32.7113 451.803 31.5349 451.068 31.0938 451.803Z" fill="#B3AD97"/>
<path d="M315.195 4.17446C315.931 4.5421 316.592 4.76268 317.328 5.05678C320.416 4.76268 323.577 4.24799 327.254 5.05678C323.724 3.14509 319.386 2.33629 315.195 4.24799V4.17446Z" fill="#B3AD97"/>
<path d="M515.07 455.629C515.07 455.629 515.585 455.188 515.879 455.041C515.585 454.747 515.364 455.041 515.07 455.629Z" fill="#B3AD97"/>
<path d="M589.846 346.513C589.846 347.91 589.478 350.043 589.258 352.101C589.625 351.146 589.846 349.454 589.846 346.513Z" fill="#B3AD97"/>
<path d="M425.5 32.4795C428.441 33.6559 426.088 32.4059 425.5 32.4795Z" fill="#B3AD97"/>
<path d="M433.213 50.202C432.478 50.202 431.816 50.4226 431.375 51.0108C431.963 50.4226 432.551 50.202 433.213 50.202Z" fill="#B3AD97"/>
<path d="M284.689 23.5127C284.689 23.5127 284.542 23.5127 284.469 23.5127C285.351 24.1009 285.204 23.9539 284.689 23.5127Z" fill="#B3AD97"/>
<path d="M429.111 35.7906C428.229 34.9083 427.126 34.026 425.949 33.2172C426.39 33.7319 427.42 34.5406 429.111 35.7906Z" fill="#B3AD97"/>
<path d="M429.172 34.1711C430.128 34.7594 430.789 35.2005 431.525 35.6417C432.113 35.3476 431.966 34.9064 429.172 34.1711Z" fill="#B3AD97"/>
<path d="M421.452 30.7178C423.07 31.453 424.541 32.3354 425.864 33.2177C425.423 32.7765 425.276 32.4824 425.423 32.4824C424.541 32.1148 423.364 31.6001 421.379 30.7178H421.452Z" fill="#B3AD97"/>
<path d="M330.5 578.86C330.5 578.86 330.941 578.934 331.162 579.081C333.809 577.316 332.632 577.758 330.5 578.86Z" fill="#B3AD97"/>
<path d="M97.13 123.726C97.13 123.726 97.13 123.505 97.2036 123.358C97.0565 123.358 96.983 123.505 96.8359 123.579L97.13 123.726Z" fill="#B3AD97"/>
<path d="M92.228 132.697C92.081 126.962 94.1397 125.418 96.8602 123.653L87.8164 119.904C89.2134 124.242 90.684 128.506 92.228 132.697Z" fill="#B3AD97"/>
<path d="M95.7354 483.053L93.2354 476.068C102.426 479.083 105 484.45 103.823 477.098C99.9264 479.965 94.853 475.553 90.7355 470.407C86.618 465.26 82.427 460.113 78.0889 462.613L77.0596 457.76C77.7948 458.863 78.383 458.716 79.0448 459.745C77.6478 450.04 69.2657 458.495 64.2659 447.834C62.7954 443.937 62.6483 440.849 65.0747 442.613L58.2367 436.217C57.1338 433.864 58.8984 433.643 60.0749 435.923C57.575 432.099 55.5897 428.055 53.3104 424.085H53.6045C51.3252 422.982 47.2077 419.967 45.296 418.423C45.0754 414.673 47.0606 419.6 47.7959 418.276C45.9577 416.291 44.046 414.379 42.3549 412.32C43.0166 410.335 44.4872 410.629 45.9577 412.026C47.5753 413.35 49.3399 415.703 50.2958 418.129C53.3104 412.909 52.0604 411.806 49.9282 409.968C48.0165 408.056 45.2225 405.188 45.3695 397.1L48.9723 403.277C52.7222 397.027 48.9723 392.615 49.6341 384.307C48.4576 386.439 46.6195 401.953 41.5461 395.189C41.5461 392.762 40.6638 389.895 37.3551 386.218C40.7373 385.116 38.8256 381.219 37.3551 376.072L41.9873 375.189C39.2668 369.969 37.061 370.998 34.1199 368.204C32.9435 361.808 36.1051 359.749 38.9727 357.69C38.1639 347.47 34.267 365.851 31.62 353.94C31.8406 349.529 31.2524 345.926 30.0759 342.176C28.8995 338.426 26.9143 334.529 25.4437 329.382C26.7672 323.132 28.3848 330.191 29.6348 327.912L25.5908 322.765C25.5908 321.441 26.7672 321.809 27.3554 321.956C25.6643 317.471 22.6497 321.882 21.0321 314.603C18.4587 313.721 19.9292 309.824 21.8409 305.265C23.8997 300.633 25.8849 295.339 23.1644 290.707C24.635 288.575 25.9584 291.957 27.8701 291.369C24.6349 278.943 25.3702 280.781 21.8409 270.12L26.179 262.032C21.7674 267.767 18.8263 259.091 16.547 251.15C14.4883 253.135 12.7236 254.826 11.8413 256.076C11.6207 251.958 11.3266 247.841 11.6207 243.871C12.7236 242.621 13.9736 244.165 15.4441 246.444C15.297 245.562 15.0765 244.753 14.8559 244.091C17.5764 240.341 19.7087 243.135 21.5468 246.591L17.6499 250.047C20.0028 253.503 22.7233 256.664 25.5173 256.591C25.0761 255.782 24.8555 254.238 24.8555 252.694C25.5173 253.576 26.1055 254.164 26.6202 253.944C27.2084 253.65 26.179 252.253 25.5908 250.267L31.3259 248.87L29.4142 247.841L36.2522 234.459C35.664 231.592 34.7816 228.724 34.0464 225.709C33.5317 222.842 33.017 219.827 32.6494 216.592C32.0612 210.269 31.6935 202.916 34.1934 194.46C35.8845 199.901 39.5609 197.769 43.6784 199.754C37.4286 202.181 41.0314 212.769 37.1345 220.489C39.1933 216.371 40.8844 218.063 41.1785 219.386L42.3549 203.357C45.6636 205.122 46.0312 201.298 49.2664 198.357C41.1785 198.137 49.8546 185.931 50.5899 179.167C52.9428 179.976 54.5604 182.476 50.6634 189.093C59.3396 184.093 47.4283 175.049 56.1779 170.123C55.2221 171.741 54.4133 172.476 55.075 173.726C55.4427 168.873 62.6483 160.418 63.0895 163.8L62.1336 165.417C63.9718 162.844 66.1041 159.535 68.1628 155.932C70.4421 152.403 73.0156 148.874 75.0743 145.271C79.3389 138.212 81.9123 131.448 80.2947 128.875C80.9565 129.316 85.0004 134.904 85.5887 136.301C84.9269 126.301 84.9269 116.081 85.221 105.272C87.7945 110.419 102.059 113.802 97.2794 123.507C99.9264 121.963 102.647 119.61 105.882 114.096C103.823 114.831 96.6912 112.037 98.3823 109.758C108.235 108.875 104.632 108.434 114.999 105.861C111.985 107.037 108.823 98.508 112.72 95.3464C113.014 96.8169 118.455 101.376 117.72 103.214C118.823 98.4345 119.999 93.5817 121.617 89.1701C120.073 92.1847 125.587 94.9787 129.117 95.1993C127.131 94.6846 137.425 89.2436 139.41 86.6702L134.263 88.1407C145.587 81.0086 138.601 70.8619 150.733 63.8769C150.145 66.2298 152.719 74.9794 159.042 72.3325C159.336 69.759 159.63 63.2887 161.542 56.8183C163.454 50.4215 166.762 43.4364 171.836 39.1719L175.071 40.3483C177.644 38.1425 180.144 35.7161 182.938 33.878C181.174 37.7014 178.012 44.907 174.63 51.8185C171.321 58.8035 167.865 65.4945 165.292 69.759C170.659 69.1708 167.865 71.6707 174.483 68.215C177.865 69.0973 172.424 72.9942 170.512 74.0971L186.467 68.0679C185.07 66.0092 187.57 63.4357 190.07 60.9358C192.717 58.73 195.511 56.6713 194.408 54.8331C188.967 58.2889 184.115 62.9946 179.188 67.1856C177.791 65.1268 178.674 60.7888 181.615 56.3036C184.409 51.5979 189.482 47.5539 195.732 45.7893C199.482 46.5246 196.614 54.8331 197.496 56.3036C198.379 54.1714 207.423 49.1715 208.893 49.9803L204.849 54.3184C208.378 54.0243 210.437 51.5244 212.864 49.2451C215.29 47.0393 218.231 45.5687 222.863 46.7451C225.731 46.304 232.642 50.7891 232.422 47.8481C226.687 43.51 221.172 26.8929 223.451 21.9666C224.04 21.9666 228.304 22.3343 232.863 22.8489C237.422 23.2166 242.348 24.8342 244.333 25.8635C249.921 29.4663 238.966 37.3337 243.818 40.4218C243.745 39.0984 246.024 37.0396 247.054 36.3779C250.289 37.0396 246.539 40.716 252.936 39.0984C253.303 33.9515 266.244 37.4808 255.436 34.4662C261.685 32.1868 262.347 34.0985 269.92 33.4368C267.126 30.3487 275.95 22.1137 282.788 20.349C282.42 21.6725 284.037 23.2166 284.773 23.9518C288.229 23.9518 291.243 23.9518 294.037 24.0989C296.831 24.393 299.478 24.9812 301.978 25.3488C307.125 26.2312 312.051 27.04 318.374 27.4076C319.477 28.6576 325.36 30.4957 322.566 32.4809C324.404 31.8192 326.242 30.4222 330.139 30.8634C336.977 36.3043 321.536 30.2016 326.536 36.2308C327.345 33.4368 336.83 33.7309 342.638 32.7751C341.682 28.0693 329.992 29.981 324.404 30.9369C324.992 24.7606 335.433 19.7608 349.77 19.0991C360.873 19.5402 353.594 24.0254 355.653 23.4372C365.432 26.5253 370.284 24.9812 374.77 23.7313C379.255 22.4813 383.372 21.4519 390.798 26.7459C395.945 32.8486 388.519 34.2456 388.96 37.4808C384.622 36.7455 381.681 34.9073 379.034 33.2162C376.387 31.6722 374.034 30.1281 371.093 29.4664L377.637 33.0692C374.549 33.6574 368.667 33.1427 365.873 31.231C370.431 35.4956 398.298 41.3777 410.798 51.2303C413.812 51.2303 418.665 52.0391 417.342 49.6127L412.709 47.9951C409.915 43.1423 423.003 47.9951 417.93 43.9511C421.459 44.3923 425.282 44.6864 429.253 45.5687C431.238 46.0099 433.297 46.5981 435.282 47.4804C437.194 48.5098 439.105 49.7598 440.944 51.4509L440.208 56.3036C440.723 55.0537 436.238 50.7156 433.297 50.5685C437.782 50.8626 442.561 63.2887 449.326 60.4947L445.282 54.3919C452.12 56.0831 462.487 56.0831 468.443 62.7005C467.854 56.7448 466.605 61.8917 464.546 53.9508C465.502 62.1123 445.649 42.113 449.399 52.3332C447.046 44.0247 441.605 44.1717 436.532 36.0102C436.091 37.4072 437.856 39.8336 431.606 36.0102C431.091 36.2308 430.135 36.3779 429.547 36.4514C429.4 36.3043 429.326 36.2308 429.179 36.1573L429.473 36.5249C429.106 36.5249 429.032 36.5985 429.547 36.672C430.797 37.9955 431.753 39.3189 431.9 40.2748C427.121 41.7453 416.9 36.672 412.709 36.672C409.18 34.1721 414.989 35.8632 413.518 33.4368C411.459 33.4368 409.327 33.4368 407.195 33.5839C408.004 30.3487 398.519 24.5401 408.812 26.3047L400.21 22.996C395.725 19.4667 388.887 16.0109 384.107 15.9374C380.063 14.1728 372.417 16.6727 376.828 15.1286L362.344 13.511V12.7022C355.579 10.4229 348.006 11.0111 340.506 10.4964C332.933 10.1288 325.433 8.51121 317.492 5.42309C312.639 6.0113 307.713 6.74657 299.699 5.42309L298.155 2.48201C292.052 3.07023 279.479 0.349736 276.905 3.29081C275.141 1.45264 272.347 0.570317 268.964 0.202683C265.582 -0.238478 261.612 0.0556295 257.641 0.937951C249.627 2.48201 241.245 4.98193 235.73 5.12898L236.024 8.87885C228.598 9.98175 221.907 13.2169 213.378 16.8197L214.775 19.8343C207.864 23.9518 194.849 23.7313 183.085 28.2899C183.379 26.8194 186.541 26.0106 188.894 25.9371C184.703 25.4959 180.879 26.3047 177.203 27.7017C173.674 29.3193 170.439 31.8192 167.277 34.1721C161.027 39.0984 154.998 43.5835 147.939 44.7599C145.66 47.5539 143.381 48.4363 140.881 48.951C141.175 48.8039 141.322 48.5833 141.543 48.3627C141.248 48.5098 140.807 48.8039 140.366 49.0245C138.822 49.3186 137.131 49.5392 135.44 49.9803C137.057 49.9803 138.601 49.7597 139.778 49.3921C137.572 50.7891 134.41 53.2155 131.543 55.936L128.161 53.8037C128.161 53.8037 127.72 54.1714 127.425 54.3919C123.455 55.2743 125.734 57.4065 128.969 58.5094C127.572 59.9064 126.617 61.6711 126.028 63.1416C120.293 60.2741 119.117 70.7149 112.132 68.2885C111.985 70.2737 108.455 73.5824 105.294 77.1852C102.353 81.0822 99.8529 85.2732 101.176 88.2878C100.515 87.7731 99.4852 88.2878 100.956 86.8173C97.3529 89.0966 93.7501 91.4494 92.1325 95.2728L87.6474 93.2141C86.6916 96.6698 85.9563 100.273 85.3681 104.023C79.633 106.228 76.839 106.964 78.1625 100.346C72.9421 114.022 72.0597 109.905 68.604 121.89L66.6923 119.61C64.2659 122.992 63.4571 130.566 60.0749 131.08C49.3399 134.757 33.9729 167.991 20.0763 187.696C25.0026 187.328 22.8703 189.387 20.4439 192.108C18.1646 194.902 15.3706 198.284 18.3116 199.901C15.9588 200.49 13.753 203.21 13.3854 198.946C11.1795 211.151 3.60629 215.269 7.13557 225.121C4.85624 225.93 4.92977 221.739 3.45923 222.621C3.60629 223.724 4.1945 226.886 2.72397 227.842C1.25343 228.724 1.54754 225.636 1.1799 223.504C-1.68764 235.93 4.12097 238.577 9.56196 240.782C7.42968 243.429 6.25325 245.635 5.95914 247.694C5.88562 249.826 6.62089 251.885 8.16495 254.458C5.95914 256.223 3.45923 259.458 3.90039 251.811C3.01807 255.929 -3.01112 277.546 1.91517 278.428C0.665216 279.678 1.25343 284.384 1.76812 285.56C1.03285 295.119 0.518162 295.927 0.518162 305.412L1.40048 302.839C6.69441 306.589 2.65044 310.559 3.67981 318.133L3.0916 317.912C1.47401 326.662 2.06223 328.573 2.57691 330.338C3.31218 332.176 3.01807 333.941 2.20928 342.691L5.59151 341.367C13.3854 341.882 3.38571 356.881 7.87084 366.366L9.26785 362.469C12.503 367.175 2.79749 379.38 3.16513 385.263C2.79749 386.586 1.69459 383.645 0.738743 382.101C0.150529 397.615 5.66504 382.763 9.4149 392.983C7.65026 395.63 2.50339 392.321 4.26803 399.527C3.97392 401.585 7.72379 406.071 11.4001 411.218C15.2235 416.364 18.3852 422.467 18.5322 427.835C19.341 425.041 20.1498 422.394 23.6791 426.291C27.6495 432.687 25.9584 448.496 34.8552 451.584C34.8552 452.687 34.6346 453.275 34.267 453.495C38.6786 457.76 46.3989 468.495 50.9575 469.671C47.2812 475.333 54.1927 481.803 60.4425 487.612C66.5452 493.494 73.0156 497.906 68.751 501.582L81.3976 514.596L80.2212 515.037C87.7209 524.008 93.0149 524.375 97.6471 525.184C99.1176 527.537 96.9853 527.022 96.3971 527.316C107.132 540.551 109.632 540.698 123.97 544.669L123.014 548.492C125.146 548.786 129.117 553.712 135.146 558.492C138.087 560.992 141.469 563.639 145.145 565.991C148.822 568.344 152.719 570.403 156.983 571.138C156.616 571.432 156.027 571.947 154.557 571.8C164.042 573.785 172.718 581.432 181.394 586.211C190.07 590.917 197.938 594.079 203.158 588.932C207.276 589.446 211.614 589.079 215.805 589.152C201.026 584.3 219.628 584.226 214.04 580.476C219.996 581.211 228.084 588.196 220.731 587.02L219.775 586.064C215.363 591.946 237.863 593.417 236.613 597.608C267.126 603.27 297.713 607.608 327.271 605.255C325.948 603.637 324.698 602.093 323.374 600.328C326.757 600.108 330.065 599.593 333.447 599.226C336.242 600.034 337.565 602.828 330.286 603.711C334.55 606.137 342.124 599.299 342.05 598.123C356.535 598.123 337.565 605.181 341.903 604.593L347.785 603.269L346.315 602.828C350.726 599.74 350.8 598.049 359.255 595.99C364.843 595.696 362.785 598.49 364.917 598.196C364.99 598.564 365.726 598.564 368.226 597.534L380.946 594.74L374.77 591.946C379.696 588.564 386.46 589.005 379.402 585.991C384.549 588.417 396.019 584.667 406.901 580.77C417.562 576.285 427.121 570.55 430.062 570.55C431.532 569.006 433.003 567.609 434.62 566.359C436.164 564.962 437.708 563.712 439.4 562.462C442.782 560.036 446.532 557.83 450.796 555.477C448.296 555.992 444.546 552.61 451.826 548.86C453.149 553.712 457.193 552.904 461.678 550.477C466.163 548.051 471.384 544.595 476.31 545.33C472.413 545.33 477.045 541.433 481.163 537.684C485.28 533.934 488.295 529.669 482.707 530.331C488.368 526.287 485.427 532.831 490.868 531.066C493.368 527.537 496.383 524.375 499.765 521.287C501.53 519.817 503.294 518.273 505.059 516.728C506.824 515.111 508.588 513.493 510.353 511.802C517.485 505.185 525.867 498.714 531.308 489.744C530.499 488.715 526.823 490.259 527.999 485.553L539.764 480.627C541.602 476.803 536.161 473.568 543.734 469.671C542.264 469.965 540.131 470.407 541.161 467.833C554.616 452.54 563.439 433.423 570.13 413.864C573.365 404.012 577.189 394.38 580.056 384.454C581.674 379.527 583.512 374.675 585.571 369.822C587.703 364.969 589.247 359.969 591.6 355.117C588.291 360.263 588.585 356.514 589.174 352.249C588.144 354.896 586.012 351.661 584.247 351.955C586.6 346.587 589.321 341.146 591.453 335.558C586.747 332.029 592.041 317.03 587.483 315.118L588.071 320.559C582.924 313.353 575.424 329.823 568.439 328.059C569.91 330.044 569.983 332.25 569.468 334.676C568.807 337.029 567.263 339.529 565.866 342.102C563.072 347.323 560.572 352.984 564.027 359.896C562.189 362.322 562.116 357.175 560.351 358.278C562.998 361.955 562.483 365.704 559.469 372.175L558.954 371.219C556.748 380.704 554.984 387.468 551.307 393.865C549.616 397.1 547.852 400.336 545.94 404.085C544.028 407.762 542.117 411.879 539.102 416.438H542.999C540.499 420.408 539.102 420.85 537.411 422.467C539.837 429.599 543.366 410.776 546.602 417.541C541.969 418.938 538.367 426.364 534.764 433.496C531.014 440.555 526.308 446.878 521.97 446.584C518.22 452.613 526.455 446.878 522.705 453.054L519.911 453.495L521.308 456.584C518.514 460.407 514.544 460.554 513 459.672C513.882 458.863 514.47 456.804 515.059 455.775C509.324 459.083 505.647 469.818 503.735 470.995L508.882 466.363C506.309 470.48 503.588 474.892 500.28 478.936C496.75 482.833 493.148 486.877 489.618 490.847C487.854 492.832 486.089 494.891 484.324 496.876C482.413 498.714 480.575 500.553 478.736 502.464C475.134 506.214 471.898 510.111 469.104 514.155L471.237 514.449C461.972 526.213 460.869 520.184 449.105 531.066L449.326 530.404C447.782 533.787 444.473 536.581 440.65 538.713C443.076 535.037 432.194 539.448 435.576 534.963C423.812 545.772 430.503 541.36 424.18 551.727L420.724 550.404C418.592 554.154 418.959 555.477 411.901 559.595C416.9 554.595 405.504 558.05 410.871 552.021C406.46 552.462 403.077 553.712 400.283 555.256C397.416 556.653 394.989 558.124 392.784 559.521C388.446 562.315 384.916 564.521 379.99 561.653C375.137 571.432 394.989 560.624 391.46 563.639C395.798 564.668 387.343 571.138 381.975 572.315C376.755 574.3 370.211 565.697 357.491 569.3C358.814 569.006 358.741 568.418 359.991 568.124C357.344 567.83 355.138 569.08 352.785 570.182C350.432 571.432 347.785 572.315 344.477 571.138C341.903 576.138 336.609 572.094 336.536 577.976L348.594 574.815C342.05 577.315 336.389 585.108 324.257 583.638C325.065 582.314 328.301 580.256 330.506 579.079C326.904 577.829 324.183 581.432 320.507 579.814C320.948 574.3 335.286 576.359 341.903 570.991C338.006 569.08 328.668 577.241 331.462 570.477C329.404 574.888 326.095 575.109 322.345 575.182C318.522 574.962 314.331 574.373 309.992 577.682L310.36 574.153C308.963 574.741 306.096 576.579 303.449 576.579L308.007 571.8C300.875 575.991 294.111 569.447 287.273 570.844C294.478 571.212 295.287 572.241 295.067 573.565C294.846 574.962 293.522 576.726 296.684 577.829C278.376 581.947 286.464 568.344 266.685 569.006C269.332 568.859 276.611 571.653 272.273 573.05C268.523 572.315 263.671 570.256 261.612 567.977C248.524 566.727 263.156 571.874 257.274 573.124C253.377 568.197 250.583 573.859 244.407 574.3L244.995 570.771C241.318 569.741 239.186 569.447 237.863 569.594C236.466 569.815 235.877 570.55 235.216 571.359C234.039 572.903 233.01 574.447 226.54 571.359L233.378 568.05L226.172 567.462L228.598 563.933C220.437 564.741 218.01 563.933 211.319 560.183C212.202 563.197 208.378 565.991 201.908 563.712C198.232 560.109 205.511 561.433 196.246 558.639C199.114 557.315 202.276 555.477 205.07 560.036C205.879 559.08 207.79 558.639 208.599 557.756C204.849 553.786 197.276 553.051 194.041 551.874C195.217 552.462 196.614 553.124 197.202 553.933C194.776 553.933 192.276 553.933 189.85 553.786L182.571 552.977C181.173 550.845 183.159 550.624 185.144 550.404C182.497 549.521 180.071 550.183 176.174 548.639C178.379 546.507 179.482 543.713 185.217 544.963L172.13 542.242C171.909 540.772 167.792 536.287 169.777 536.066C164.703 530.846 151.836 531.949 145.072 524.669C144.337 524.816 143.234 524.669 141.395 523.787C137.94 520.772 135.219 517.39 131.911 514.376C130.293 512.832 128.455 511.508 126.47 510.185C124.558 508.714 122.426 507.464 119.779 506.435L118.823 498.567C111.838 493.862 120.514 508.935 108.823 500.92C100.294 495.332 109.117 495.332 107.72 491.876C102.647 490.185 92.8678 487.244 89.8532 477.759C92.6472 479.377 93.6031 481.583 95.8089 483.421L95.7354 483.053ZM41.5461 395.262C42.9431 396.953 46.4724 399.894 45.0019 402.027C40.4432 401.291 41.6196 398.939 41.5461 395.262ZM26.9878 237.033C27.7231 238.797 26.5466 241.003 24.5614 243.282C24.782 241.297 25.4437 239.165 26.9878 237.033ZM392.71 22.1137C392.71 22.1137 392.489 22.1137 392.416 22.1872C388.078 19.1726 389.622 20.2755 392.71 22.1137ZM402.048 27.187C403.224 27.1135 403.298 26.5988 403.077 26.0106C402.048 26.5988 399.842 25.8635 397.416 24.6871C397.783 25.79 398.813 26.8929 402.048 27.187ZM365.873 596.431L363.667 596.064C367.858 593.932 366.829 595.182 365.873 596.431Z" fill="#B3AD97"/>
<path d="M27.5236 255.93C26.8619 256.371 26.2001 256.445 25.4648 256.445C25.906 257.327 26.6413 257.474 27.5236 255.93Z" fill="#B3AD97"/>
<path d="M144.703 524.226L144.924 524.447C144.924 524.447 145.365 524.226 145.512 524.079L144.703 524.226Z" fill="#B3AD97"/>
<path d="M247.829 41.305C245.844 41.0844 244.667 40.6433 243.785 40.0551C243.785 40.9374 244.888 41.5256 247.829 41.305Z" fill="#B3AD97"/>
<path d="M454.839 46.6713L448.516 43.9508C451.457 45.4949 452.045 46.8183 453.148 48.1418C453.442 47.333 452.927 45.6419 454.839 46.7448V46.6713Z" fill="#B3AD97"/>
<path d="M487.092 98.5815C488.048 98.8756 488.562 99.9049 489.592 100.199L490.547 98.802C487.533 96.2286 484.592 95.3463 487.165 98.5815H487.092Z" fill="#B3AD97"/>
<path d="M453.878 59.8339C452.628 62.7014 456.893 63.6573 460.79 66.0836C460.569 65.9366 460.349 65.7895 460.128 65.569C463.657 62.922 458.878 61.0838 453.878 59.8339Z" fill="#B3AD97"/>
<path d="M461.695 66.5977C462.872 67.3329 464.122 68.1417 465.151 69.0976C466.548 68.0682 463.975 67.7741 461.695 66.5977Z" fill="#B3AD97"/>
<path d="M415.239 30.202C416.93 31.8931 418.033 27.3345 418.695 28.952C422.518 26.4521 403.254 26.8198 415.239 30.202Z" fill="#B3AD97"/>
<path d="M451.604 69.9819L452.266 66.085L448.516 67.2614L451.604 69.9819Z" fill="#B3AD97"/>
<path d="M422.273 50.1299L428.303 54.1739C428.523 53.5857 429.479 53.6592 430.655 53.8798C426.759 51.821 422.641 49.1005 422.347 50.1299H422.273Z" fill="#B3AD97"/>
<path d="M430.641 53.8785C432.626 54.9814 434.538 56.1579 435.935 56.3049C434.832 55.7167 432.552 54.3197 430.641 53.8785Z" fill="#B3AD97"/>
<path d="M442.725 65.8615L441.328 64.0969L437.211 61.3029L442.725 65.8615Z" fill="#B3AD97"/>
<path d="M349.584 24.467L341.643 24.3199C340.687 25.4228 342.599 26.5258 345.54 26.4522C347.525 25.864 350.539 25.864 349.584 24.467Z" fill="#B3AD97"/>
<path d="M369.94 39.8351C368.175 38.5851 368.249 37.7763 367.44 36.3058L366.043 40.6439L369.94 39.8351Z" fill="#B3AD97"/>
<path d="M348.278 35.5687C347.249 36.6716 336.882 37.4804 346.293 38.6569C347.249 37.4069 354.896 37.8481 348.278 35.5687Z" fill="#B3AD97"/>
<path d="M233.988 31.1556L235.9 30.5674L234.062 23.2882L233.988 31.1556Z" fill="#B3AD97"/>
<path d="M149.858 85.5653C158.166 82.6243 149.123 80.639 156.99 78.4332C157.799 75.8598 150.593 80.1979 151.549 77.845C148.02 82.1831 145.152 82.6978 149.858 85.5653Z" fill="#B3AD97"/>
<path d="M151.52 77.8479C152.108 77.1861 152.696 76.3773 153.211 75.495C152.108 76.6714 151.74 77.3332 151.52 77.8479Z" fill="#B3AD97"/>
<path d="M595.937 324.162L597.775 317.912L595.055 321.883L595.937 324.162Z" fill="#B3AD97"/>
<path d="M590.934 311.956L595.786 310.559L591.669 306.809C591.816 308.206 592.11 310.927 590.934 311.956Z" fill="#B3AD97"/>
<path d="M45.961 377.837H44.7846C43.8287 378.94 44.0493 380.19 44.4905 382.69L46.0345 377.837H45.961Z" fill="#B3AD97"/>
<path d="M72.6318 446.143L72.0436 444.966L69.6172 449.304L72.6318 446.143Z" fill="#B3AD97"/>
<path d="M115.362 490.479C113.597 488.788 110.95 487.244 109.406 485.259C113.45 488.861 112.127 494.743 115.362 490.479Z" fill="#B3AD97"/>
<path d="M297.461 98.338L275.092 166.661C275.092 166.661 240.929 152.021 201.072 151.614C127.052 151.207 87.1949 203.67 87.1949 253.692C87.1949 298.021 118.918 340.316 188.057 341.13C245.403 341.536 283.226 317.542 283.226 317.542C287.7 323.236 290.547 330.556 290.547 338.283C290.547 362.684 262.891 391.559 189.684 391.559C101.429 391.559 42.0508 329.743 42.0508 242.305C42.0508 156.087 106.31 75.9702 198.225 75.9702C258.01 75.9702 297.461 98.338 297.461 98.338Z" fill="#242424"/>
<path d="M363.227 512.841C291.696 507.544 295.761 470.055 307.953 445.605C310.798 449.273 316.488 452.533 324.617 455.385C315.675 422.786 322.991 331.101 321.772 273.238C315.675 273.645 309.579 274.053 304.296 274.868L298.199 206.41C298.199 206.41 329.087 201.927 368.51 201.927C436.383 201.927 529.047 215.374 529.047 289.537C529.047 333.139 492.469 353.106 431.099 359.218V360.848C489.218 362.07 539.614 377.147 539.614 431.343C539.614 496.541 456.704 519.768 363.227 512.841ZM483.934 305.429C483.934 279.758 428.254 270.793 373.794 270.793C371.762 291.982 369.73 317.247 368.51 342.103C401.024 340.473 483.934 331.509 483.934 305.429ZM371.355 463.127C427.035 468.017 501.817 458.238 501.817 427.676C501.817 401.189 431.912 388.965 366.072 393.039C365.665 424.416 366.885 451.31 371.355 463.127Z" fill="#242424"/>
</svg>
